<svg width="50" height="50" viewBox="0 0 50 50" fill="none" xmlns="http://www.w3.org/2000/svg">
<g clip-path="url(#clip0_2_102)">
<path d="M38.2812 0H11.7188C5.24666 0 0 5.24666 0 11.7188V38.2812C0 44.7533 5.24666 50 11.7188 50H38.2812C44.7533 50 50 44.7533 50 38.2812V11.7188C50 5.24666 44.7533 0 38.2812 0Z" fill="#00B4E0"/>
<path d="M7.91016 22.116C7.83203 22.116 7.8125 22.0769 7.85156 22.0183L8.26172 21.491C8.30078 21.4324 8.39844 21.3933 8.47656 21.3933H15.4492C15.5273 21.3933 15.5469 21.4519 15.5078 21.5105L15.1758 22.0183C15.1367 22.0769 15.0391 22.1355 14.9805 22.1355L7.91016 22.116ZM4.96094 23.9128C4.88281 23.9128 4.86328 23.8738 4.90234 23.8152L5.3125 23.2878C5.35156 23.2292 5.44922 23.1902 5.52734 23.1902H14.4336C14.5117 23.1902 14.5508 23.2488 14.5312 23.3074L14.375 23.7761C14.3555 23.8542 14.2773 23.8933 14.1992 23.8933L4.96094 23.9128ZM9.6875 25.7097C9.60937 25.7097 9.58984 25.6511 9.62891 25.5925L9.90234 25.1042C9.94141 25.0456 10.0195 24.9871 10.0977 24.9871H14.0039C14.082 24.9871 14.1211 25.0456 14.1211 25.1238L14.082 25.5925C14.082 25.6706 14.0039 25.7292 13.9453 25.7292L9.6875 25.7097ZM29.9609 21.7644C28.7305 22.0769 27.8906 22.3113 26.6797 22.6238C26.3867 22.7019 26.3672 22.7214 26.1133 22.4285C25.8203 22.0964 25.6055 21.8816 25.1953 21.6863C23.9648 21.0808 22.7734 21.2566 21.6602 21.9792C20.332 22.8386 19.6484 24.1081 19.668 25.6902C19.6875 27.2527 20.7617 28.5417 22.3047 28.7566C23.6328 28.9324 24.7461 28.4636 25.625 27.4675C25.8008 27.2527 25.957 27.0183 26.1523 26.7449H22.3828C21.9727 26.7449 21.875 26.491 22.0117 26.1589C22.2656 25.5535 22.7344 24.5378 23.0078 24.03C23.0664 23.9128 23.2031 23.7175 23.4961 23.7175H30.6055C30.5664 24.2449 30.5664 24.7722 30.4883 25.2996C30.2734 26.7058 29.7461 27.9949 28.8867 29.1277C27.4805 30.9831 25.6445 32.1355 23.3203 32.448C21.4062 32.7019 19.6289 32.3308 18.0664 31.1589C16.6211 30.0652 15.8008 28.6199 15.5859 26.823C15.332 24.6941 15.957 22.78 17.2461 21.1003C18.6328 19.2839 20.4688 18.1316 22.7148 17.7214C24.5508 17.3894 26.3086 17.6042 27.8906 18.6785C28.9258 19.3621 29.668 20.2996 30.1562 21.4324C30.2734 21.6081 30.1953 21.7058 29.9609 21.7644Z" fill="white"/>
<path d="M36.4258 32.5652C34.6484 32.5262 33.0273 32.0184 31.6602 30.8465C30.5078 29.8504 29.7852 28.5809 29.5508 27.0769C29.1992 24.8699 29.8047 22.9168 31.1328 21.1785C32.5586 19.3035 34.2773 18.3269 36.6016 17.9168C38.5938 17.5652 40.4688 17.7605 42.168 18.9129C43.7109 19.9676 44.668 21.3934 44.9219 23.2684C45.2539 25.9051 44.4922 28.0535 42.6758 29.8894C41.3867 31.198 39.8047 32.0184 37.9883 32.3894C37.4609 32.4871 36.9336 32.5066 36.4258 32.5652ZM41.0742 24.6746C41.0547 24.4207 41.0547 24.2254 41.0156 24.0301C40.6641 22.0965 38.8867 21.0027 37.0313 21.4324C35.2148 21.8426 34.043 22.9949 33.6133 24.8309C33.2617 26.3543 34.0039 27.8973 35.4102 28.5223C36.4844 28.991 37.5586 28.9324 38.5938 28.4051C40.1367 27.6043 40.9766 26.3543 41.0742 24.6746Z" fill="white"/>
</g>
<defs>
<clipPath id="clip0_2_102">
<rect width="50" height="50" fill="white"/>
</clipPath>
</defs>
</svg>
